<?xml version="1.0" encoding="UTF-8"?><svg id="a" xmlns="http://www.w3.org/2000/svg" width="216" height="216" xmlns:xlink="http://www.w3.org/1999/xlink" viewBox="0 0 216 216"><defs><style>.ab{fill:url(#j);}.ac{fill:url(#p);}.ad{fill:url(#m);}.ae{fill:#fff;}.af{fill:url(#r);}.ag{fill:url(#h);}.ah{fill:url(#t);}.ai{fill:url(#i);}.aj{fill:url(#l);}.ak{fill:url(#s);}.al{fill:url(#q);}.am{fill:url(#f);}.an{fill:url(#g);}.ao{fill:#b7170e;}.ap{fill:url(#n);}.aq{fill:url(#e);}.ar{fill:url(#v);}.as{fill:url(#o);}.at{fill:url(#d);}.au{fill:url(#u);}.av{fill:url(#c);}.aw{fill:url(#k);}.ax{fill:#958e7c;}</style><radialGradient id="c" cx="-5596.83" cy="-2771.54" fx="-5596.83" fy="-2771.54" r="140.07" gradientTransform="translate(-5109.9 1703.85) rotate(131.35) scale(.84 1.03) skewX(-.35)" gradientUnits="userSpaceOnUse"><stop offset="0" stop-color="#f7f9fa"/><stop offset=".22" stop-color="#e8e7e8"/><stop offset=".65" stop-color="#bebfc0"/><stop offset="1" stop-color="#97989c"/></radialGradient><radialGradient id="d" cx="-5582.69" cy="-2767.69" fx="-5582.69" fy="-2767.69" r="140.07" gradientTransform="translate(-5115.78 1705.79) rotate(131.4) scale(.84 1.03)" gradientUnits="userSpaceOnUse"><stop offset="0" stop-color="#03aade"/><stop offset=".2" stop-color="#00a4d9"/><stop offset=".46" stop-color="#0092c9"/><stop offset=".77" stop-color="#0377af"/><stop offset="1" stop-color="#005c96"/></radialGradient><radialGradient id="e" cx="682.28" cy="-394.36" fx="682.28" fy="-394.36" r="140.07" gradientTransform="translate(-436.47 399.51) scale(.83)" gradientUnits="userSpaceOnUse"><stop offset="0" stop-color="#03aade"/><stop offset=".2" stop-color="#00a4d9"/><stop offset=".46" stop-color="#0092c9"/><stop offset=".77" stop-color="#0377af"/><stop offset="1" stop-color="#005c96"/></radialGradient><radialGradient id="f" cx="682.28" cy="-394.36" fx="682.28" fy="-394.36" r="140.07" gradientTransform="translate(-436.47 399.51) scale(.83)" gradientUnits="userSpaceOnUse"><stop offset="0" stop-color="#03aade"/><stop offset=".2" stop-color="#00a4d9"/><stop offset=".46" stop-color="#0092c9"/><stop offset=".77" stop-color="#0377af"/><stop offset="1" stop-color="#005c96"/></radialGradient><radialGradient id="g" cx="682.28" cy="-394.36" fx="682.28" fy="-394.36" r="140.07" gradientTransform="translate(-436.47 399.51) scale(.83)" gradientUnits="userSpaceOnUse"><stop offset="0" stop-color="#03aade"/><stop offset=".2" stop-color="#00a4d9"/><stop offset=".46" stop-color="#0092c9"/><stop offset=".77" stop-color="#0377af"/><stop offset="1" stop-color="#005c96"/></radialGradient><radialGradient id="h" cx="682.28" cy="-394.36" fx="682.28" fy="-394.36" r="140.07" gradientTransform="translate(-436.47 399.51) scale(.83)" gradientUnits="userSpaceOnUse"><stop offset="0" stop-color="#03aade"/><stop offset=".2" stop-color="#00a4d9"/><stop offset=".46" stop-color="#0092c9"/><stop offset=".77" stop-color="#0377af"/><stop offset="1" stop-color="#005c96"/></radialGradient><radialGradient id="i" cx="682.28" cy="-394.36" fx="682.28" fy="-394.36" r="140.07" gradientTransform="translate(-436.47 399.51) scale(.83)" gradientUnits="userSpaceOnUse"><stop offset="0" stop-color="#03aade"/><stop offset=".2" stop-color="#00a4d9"/><stop offset=".46" stop-color="#0092c9"/><stop offset=".77" stop-color="#0377af"/><stop offset="1" stop-color="#005c96"/></radialGradient><radialGradient id="j" cx="682.28" cy="-394.36" fx="682.28" fy="-394.36" r="140.07" gradientTransform="translate(-436.47 399.51) scale(.83)" gradientUnits="userSpaceOnUse"><stop offset="0" stop-color="#03aade"/><stop offset=".2" stop-color="#00a4d9"/><stop offset=".46" stop-color="#0092c9"/><stop offset=".77" stop-color="#0377af"/><stop offset="1" stop-color="#005c96"/></radialGradient><radialGradient id="k" cx="682.28" cy="-394.36" fx="682.28" fy="-394.36" r="140.07" gradientTransform="translate(-436.47 399.51) scale(.83)" gradientUnits="userSpaceOnUse"><stop offset="0" stop-color="#03aade"/><stop offset=".2" stop-color="#00a4d9"/><stop offset=".46" stop-color="#0092c9"/><stop offset=".77" stop-color="#0377af"/><stop offset="1" stop-color="#005c96"/></radialGradient><radialGradient id="l" cx="682.28" cy="-394.36" fx="682.28" fy="-394.36" r="140.07" gradientTransform="translate(-436.47 399.51) scale(.83)" gradientUnits="userSpaceOnUse"><stop offset="0" stop-color="#03aade"/><stop offset=".2" stop-color="#00a4d9"/><stop offset=".46" stop-color="#0092c9"/><stop offset=".77" stop-color="#0377af"/><stop offset="1" stop-color="#005c96"/></radialGradient><radialGradient id="m" cx="682.28" cy="-394.36" fx="682.28" fy="-394.36" r="140.07" gradientTransform="translate(-436.47 399.51) scale(.83)" gradientUnits="userSpaceOnUse"><stop offset="0" stop-color="#03aade"/><stop offset=".2" stop-color="#00a4d9"/><stop offset=".46" stop-color="#0092c9"/><stop offset=".77" stop-color="#0377af"/><stop offset="1" stop-color="#005c96"/></radialGradient><radialGradient id="n" cx="682.28" cy="-394.36" fx="682.28" fy="-394.36" r="140.07" gradientTransform="translate(-436.47 399.51) scale(.83)" gradientUnits="userSpaceOnUse"><stop offset="0" stop-color="#03aade"/><stop offset=".2" stop-color="#00a4d9"/><stop offset=".46" stop-color="#0092c9"/><stop offset=".77" stop-color="#0377af"/><stop offset="1" stop-color="#005c96"/></radialGradient><radialGradient id="o" cx="682.28" cy="-394.36" fx="682.28" fy="-394.36" r="140.07" gradientTransform="translate(-436.47 399.51) scale(.83)" gradientUnits="userSpaceOnUse"><stop offset="0" stop-color="#03aade"/><stop offset=".2" stop-color="#00a4d9"/><stop offset=".46" stop-color="#0092c9"/><stop offset=".77" stop-color="#0377af"/><stop offset="1" stop-color="#005c96"/></radialGradient><radialGradient id="p" cx="682.28" cy="-394.36" fx="682.28" fy="-394.36" r="140.07" gradientTransform="translate(-436.47 399.51) scale(.83)" gradientUnits="userSpaceOnUse"><stop offset="0" stop-color="#03aade"/><stop offset=".2" stop-color="#00a4d9"/><stop offset=".46" stop-color="#0092c9"/><stop offset=".77" stop-color="#0377af"/><stop offset="1" stop-color="#005c96"/></radialGradient><radialGradient id="q" cx="682.28" cy="-394.36" fx="682.28" fy="-394.36" r="140.07" gradientTransform="translate(-436.47 399.51) scale(.83)" gradientUnits="userSpaceOnUse"><stop offset="0" stop-color="#03aade"/><stop offset=".2" stop-color="#00a4d9"/><stop offset=".46" stop-color="#0092c9"/><stop offset=".77" stop-color="#0377af"/><stop offset="1" stop-color="#005c96"/></radialGradient><radialGradient id="r" cx="682.28" cy="-394.36" fx="682.28" fy="-394.36" r="140.07" gradientTransform="translate(-436.47 399.51) scale(.83)" gradientUnits="userSpaceOnUse"><stop offset="0" stop-color="#03aade"/><stop offset=".2" stop-color="#00a4d9"/><stop offset=".46" stop-color="#0092c9"/><stop offset=".77" stop-color="#0377af"/><stop offset="1" stop-color="#005c96"/></radialGradient><radialGradient id="s" cx="682.28" cy="-394.36" fx="682.28" fy="-394.36" r="140.07" gradientTransform="translate(-436.47 399.51) scale(.83)" gradientUnits="userSpaceOnUse"><stop offset="0" stop-color="#03aade"/><stop offset=".2" stop-color="#00a4d9"/><stop offset=".46" stop-color="#0092c9"/><stop offset=".77" stop-color="#0377af"/><stop offset="1" stop-color="#005c96"/></radialGradient><radialGradient id="t" cx="682.28" cy="-394.36" fx="682.28" fy="-394.36" r="140.07" gradientTransform="translate(-436.47 399.51) scale(.83)" gradientUnits="userSpaceOnUse"><stop offset="0" stop-color="#03aade"/><stop offset=".2" stop-color="#00a4d9"/><stop offset=".46" stop-color="#0092c9"/><stop offset=".77" stop-color="#0377af"/><stop offset="1" stop-color="#005c96"/></radialGradient><radialGradient id="u" cx="682.28" cy="-394.36" fx="682.28" fy="-394.36" r="140.07" gradientTransform="translate(-436.47 399.51) scale(.83)" gradientUnits="userSpaceOnUse"><stop offset="0" stop-color="#03aade"/><stop offset=".2" stop-color="#00a4d9"/><stop offset=".46" stop-color="#0092c9"/><stop offset=".77" stop-color="#0377af"/><stop offset="1" stop-color="#005c96"/></radialGradient><radialGradient id="v" cx="682.28" cy="-394.36" fx="682.28" fy="-394.36" r="140.07" gradientTransform="translate(-436.47 399.51) scale(.83)" gradientUnits="userSpaceOnUse"><stop offset="0" stop-color="#03aade"/><stop offset=".2" stop-color="#00a4d9"/><stop offset=".46" stop-color="#0092c9"/><stop offset=".77" stop-color="#0377af"/><stop offset="1" stop-color="#005c96"/></radialGradient></defs><circle class="ax" cx="108" cy="108" r="106.52"/><g id="b"><circle class="av" cx="108" cy="108" r="71.01"/><path class="at" d="m66.72,65.43c-3.42,4.93-6.4,10.15-8.9,15.6h20.38c1.61-5.38,3.72-10.6,6.3-15.59h-17.78Z"/><path class="aq" d="m151.98,63.88h11.63c-3.84-4.83-8.29-9.14-13.24-12.83h-10.61c4.52,3.83,8.61,8.13,12.21,12.83h0Z"/><path class="am" d="m76.54,93.05l.42-.1-.8.17s.38-.07.38-.07Z"/><path class="an" d="m80.21,81.02h26.84v-15.59h-20.53c-2.59,4.99-4.7,10.21-6.31,15.59Z"/><path class="ag" d="m45.68,82.47c0-.3-.13-.59-.19-.89.91,4.5,2.51,8.32,6.08,10.59,1.01-3.2,2.2-6.44,3.56-9.68h-9.46v-.02Z"/><path class="ai" d="m53.09,92.99c1.46.61,2.99,1.01,4.56,1.19,5.99.55,12.03.22,17.92-.99.49-3.61,1.22-7.18,2.2-10.69h-20.6c-1.53,3.41-2.89,6.93-4.08,10.49Z"/><path class="ab" d="m108.62,51.05v12.82h20.66c-2.54-4.47-5.39-8.75-8.52-12.82,0,0-12.14,0-12.14,0Z"/><path class="aw" d="m121.82,49.49h12.8c-6.4-4.48-13.53-7.58-23.04-11.03,3.72,3.38,7.14,7.07,10.24,11.03Z"/><path class="aj" d="m136.76,51.05h-13.72c3.08,4.06,5.86,8.35,8.32,12.82h18.25c-3.77-4.76-8.08-9.06-12.84-12.82h0Z"/><path class="ad" d="m108.62,37.88v11.67h10.93c-3.31-4.19-6.97-8.09-10.93-11.67Z"/><path class="ap" d="m93.54,51.05h-14.2c-4.26,3.86-8.11,8.15-11.49,12.81h17.48c2.41-4.47,5.16-8.75,8.21-12.81Z"/><path class="as" d="m99.7,37.46c-11.48,1.35-22.46,5.49-31.96,12.07h10.1c6.24-5.69,13.73-9.82,21.86-12.07Z"/><path class="ac" d="m76.18,51.05h-10.55c-4.94,3.68-9.38,7.98-13.2,12.81h12.87c3.17-4.64,6.82-8.93,10.88-12.81Z"/><path class="al" d="m147.96,49.46h.21c-10.57-7.29-22.92-11.56-35.73-12.35,10.48,3.22,18.43,7.03,25.37,12.35h10.15Z"/><path class="af" d="m55.73,81.04c2.38-5.43,5.21-10.65,8.47-15.6h-13.07c-2.49,3.32-4.69,6.85-6.57,10.55.21,1.75.44,3.45.75,5.06h10.42Z"/><path class="ak" d="m107.04,49.5v-11.57c-3.63,3.67-7.05,7.53-10.24,11.59h10.24v-.02Z"/><path class="ah" d="m105.32,37.88c-.61.07-1.19.18-1.79.31-1.46.28-2.89.68-4.28,1.19-5.48,2.2-10.05,3.9-14.57,7.27-1.19.91-2.38,1.88-3.56,2.86h13.61c3.23-4.14,6.77-8.03,10.6-11.63h-.01Z"/><path class="au" d="m95.63,51.05c-3.09,4.06-5.87,8.34-8.32,12.82h19.7v-12.82h-11.38Z"/><path class="ar" d="m156.9,70.51h-2.13c-1.33-1.82-2.61-3.51-3.87-5.09h-18.74c.88,1.67,1.72,3.37,2.52,5.09h-1.94c-.79-1.7-1.66-3.39-2.59-5.09h-21.53v17.07h-28.84c-.95,3.4-1.72,6.86-2.28,10.35,10.92-2.48,22.58-6.9,32.28-9.11,11.64-2.66,23.38-4.85,35.4-3.48,2.49.17,4.96.56,7.38,1.19,2.87.82,5.61,2.01,8.15,3.56.46.34.88.74,1.25,1.19-24.43,3.65-41.16,12.74-59.05,30.53-14.72,14.64-24.83,39.28-8.32,51.09-26.43,1-41.94-13.72-41.94-28.67,0-14.03,12.37-28.03,29.12-39.41-14.96,3.34-29.49,5.45-44.69,4.68,0,1.19-.1,2.38-.1,3.64.03,39.22,31.84,70.99,71.06,70.96s70.99-31.84,70.96-71.06c0-15.33-4.98-30.25-14.18-42.52h-11.66c1.25,1.6,2.47,3.35,3.73,5.09h0Z"/><g id="w"><path id="x" class="ae" d="m116.78,133.6c-.17,1.84-1.79,3.2-3.64,3.05-.98.07-1.83-.68-1.9-1.66v-.21c0-1.69,1.26-2.07,2.77-2.38.98-.05,1.93-.34,2.77-.84v2.03h0Zm3.99-5.85c0-3.83-3.99-4.49-6.18-4.49-3.17,0-6.46.67-6.94,5.42h3.92c.02-1.22,1.02-2.2,2.24-2.18.09,0,.18,0,.27.02,1.06,0,2.69.1,2.69,1.82,0,.87-.78,1.13-1.43,1.19l-3.67.55c-2.6.38-4.52,1.92-4.52,4.95-.1,2.41,1.77,4.44,4.17,4.54.19,0,.39,0,.58,0,1.93.05,3.77-.78,5.01-2.26.04.63.16,1.25.38,1.84h4.4v-.62c-.5-.17-.9-.58-.9-2.38v-8.39h-.02Z"/><path id="y" class="ae" d="m154.88,133.6c-.17,1.85-1.8,3.21-3.65,3.05-.98.06-1.83-.69-1.89-1.67v-.2c0-1.69,1.25-2.07,2.77-2.38.98-.05,1.93-.34,2.77-.84v2.03h0Zm3.99-5.85c0-3.83-3.99-4.49-6.18-4.49-3.17,0-6.46.67-6.94,5.42h3.93c.02-1.22,1.02-2.2,2.24-2.18.09,0,.18,0,.27.02,1.06,0,2.69.1,2.69,1.82,0,.87-.78,1.13-1.43,1.19l-3.67.55c-2.59.38-4.52,1.92-4.52,4.95-.1,2.41,1.77,4.44,4.17,4.54.19,0,.39,0,.58,0,1.93.05,3.77-.78,5.01-2.26.04.63.16,1.25.38,1.84h4.4v-.62c-.5-.17-.9-.58-.9-2.38v-8.39h-.04,0Z"/><path id="z" class="ae" d="m133.49,123.66h-3.91v21.57h4.09v-8.04h0c.85,1.59,2.56,2.53,4.36,2.38,4.61,0,6.54-4.09,6.54-8.32,0-5.36-3.03-7.98-6.44-7.98-1.93-.1-3.74.93-4.63,2.65h-.06v-2.25h.06,0Zm0,8.09c0-2.48.67-4.98,3.47-4.98,2.59,0,3.47,2.29,3.47,4.75,0,1.84-.74,4.69-3.35,4.69s-3.56-2.15-3.56-4.46h-.03Z"/><polygon id="aa" class="ae" points="127.45 118.24 123.37 118.24 123.37 139.16 127.45 139.16 127.45 118.24 127.45 118.24"/></g></g><path class="ao" d="m108,216C48.45,216,0,167.55,0,108S48.45,0,108,0s108,48.45,108,108-48.45,108-108,108Zm0-213.04c-57.92,0-105.04,47.12-105.04,105.04s47.12,105.04,105.04,105.04,105.04-47.12,105.04-105.04S165.92,2.96,108,2.96Z"/><path class="ae" d="m108,38.36c38.46,0,69.64,31.18,69.64,69.64s-31.18,69.64-69.64,69.64-69.64-31.18-69.64-69.64,31.18-69.64,69.64-69.64h0Zm0-2.9h0c-40,0-72.55,32.54-72.55,72.54s32.54,72.55,72.55,72.55,72.54-32.54,72.54-72.55-32.54-72.55-72.54-72.55h0Z"/><g><path class="ae" d="m179.3,48.11l1.17,1.49-3.1,3.57,4.23-2.14,1.13,1.43-6.18,5.06-.78-.98,4.08-3.41-4.75,2.57-.69-.87,3.59-4.1-4.27,3.23-.79-1,6.35-4.85h0Z"/><path class="ae" d="m184.57,55.08l1.13,1.67-5.78,5.71-.91-1.35,1.25-1.17-.66-.97-1.55.72-.93-1.38,7.46-3.23h-.01Zm-3.54,4.13l2.34-2.1-2.82,1.39.48.7h0Z"/><path class="ae" d="m182.42,61.91l.96,1.19c-.88.54-1.09.94-.87,1.32.18.31.49.23.73.09.57-.33.74-.82.86-1.52l.17-.9c.13-.79.42-1.49,1.25-1.98,1.16-.68,2.24-.32,2.93.87.86,1.47-.16,2.36-.95,2.86l-.93-1.21c.6-.38.97-.65.74-1.04-.17-.28-.54-.23-.78-.09-.51.3-.63.72-.74,1.33l-.17.86c-.16.89-.48,1.72-1.44,2.28-.98.57-2.15.31-2.79-.78-.76-1.3-.48-2.31,1.02-3.26v-.02Z"/><path class="ae" d="m189.36,65.51l-.55-1.07,1.17-.6,1.9,3.72-1.17.6-.54-1.06-5.95,3.04-.81-1.58,5.95-3.04h0Z"/><path class="ae" d="m192.48,68.84l1.46,3.28-1.1.49-.74-1.67-1.81.8.56,1.27-1.12.5-.56-1.27-2.18.97.75,1.69-1.09.48-1.46-3.3,7.3-3.24h-.01Z"/><path class="ae" d="m194.52,73.55l.76,2.06c.56,1.51.51,2.64-1.06,3.22-.92.34-1.6.39-2.22-.22l-3.25,2.37-.63-1.71,3.05-2.06-.17-.47-3.36,1.24-.61-1.66,7.49-2.77Zm-2.4,3.29c.26.69.72.75,1.39.51.64-.24.95-.57.71-1.2l-.2-.54-2.07.77.17.46Z"/><path class="ae" d="m197.66,82.88l.91,3.47-1.16.3-.46-1.76-1.92.5.35,1.34-1.18.31-.35-1.34-2.31.6.47,1.78-1.15.3-.91-3.49,7.72-2.01h-.01Z"/><path class="ae" d="m195.49,89.57l3.33-2.17.32,1.63-1.95,1.28,2.26.28.29,1.44-4.35-.56-3.46,2.28-.32-1.63,2.15-1.42-2.51-.38-.28-1.43,4.52.68h0Z"/><path class="ae" d="m199.97,93.57l.49,3.55-1.19.16-.25-1.81-1.96.27.19,1.38-1.21.17-.19-1.38-2.36.32.25,1.83-1.18.16-.49-3.57,7.91-1.09h0Z"/><path class="ae" d="m195.21,98.98l2.87-.22c1.65-.13,2.71.37,2.85,2.19.13,1.76-.77,2.37-2.13,2.47l-.69.05-.13-1.72.8-.06c.46-.04.95-.08.91-.64s-.55-.57-1.03-.54l-3.75.28c-.54.04-.97.16-.93.68.04.55.54.53,1.02.5l.84-.06.13,1.72-.69.05c-1.36.1-2.41-.33-2.55-2.11-.14-1.82.86-2.47,2.48-2.59h0Z"/><path class="ae" d="m195.52,104.99l5.51-.09.03,1.74-5.78.09c-.5,0-1.05.08-1.04.64,0,.56.56.6,1.06.59l5.78-.09.03,1.75-5.51.09c-1.68.03-2.6-.49-2.63-2.33-.03-1.84.88-2.38,2.56-2.41v.02Z"/><path class="ae" d="m199.67,112.16l.07-1.2,1.31.07-.23,4.16-1.31-.07.06-1.19-6.66-.36.1-1.77,6.66.36h0Z"/><path class="ae" d="m200.69,116.58l-.18,1.76-7.95-.8.18-1.76,7.95.8Z"/><path class="ae" d="m200.37,119.84l-.23,1.49-5.49.03,5.24,1.61-.24,1.58-7.68-2.65.28-1.84,8.12-.21h0Z"/><path class="ae" d="m199.35,126.05l-.75,3.51-1.18-.25.38-1.78-1.94-.42-.29,1.36-1.2-.26.29-1.36-2.33-.5-.39,1.8-1.17-.25.76-3.53,7.81,1.68h0Z"/><path class="ae" d="m192.24,132.37l2.75.87c1.58.5,2.37,1.36,1.82,3.09-.54,1.68-1.6,1.9-2.9,1.49l-.66-.21.52-1.65.76.24c.44.14.92.28,1.08-.25.17-.54-.29-.74-.75-.88l-3.58-1.14c-.52-.16-.96-.21-1.12.29-.17.53.3.69.76.84l.8.25-.52,1.65-.66-.21c-1.3-.41-2.11-1.21-1.57-2.91.55-1.74,1.72-1.97,3.26-1.48h.01Z"/><path class="ae" d="m190.37,138.03l2.76,1.09c1.53.61,2.21,1.52,1.55,3.19-.67,1.68-1.79,1.89-3.32,1.28l-2.76-1.09c-1.53-.61-2.22-1.54-1.56-3.22.66-1.67,1.8-1.87,3.33-1.26h0Zm-1.52,2.64l3.58,1.42c.44.17.89.29,1.1-.22.19-.49-.21-.72-.65-.9l-3.58-1.42c-.42-.17-.89-.31-1.09.21-.2.51.22.75.65.91h-.01Z"/><path class="ae" d="m188,143.76l4.97,2.39-.76,1.57-5.21-2.5c-.45-.22-.98-.4-1.22.1-.24.51.23.79.69,1.01l5.21,2.5-.76,1.58-4.97-2.39c-1.51-.73-2.11-1.6-1.31-3.26.8-1.66,1.85-1.74,3.37-1.01h-.01Z"/><path class="ae" d="m190.03,152.1l-.62,1.08-4.16-.48,3.34,1.9-.72,1.27-6.95-3.96.59-1.04,4.41.63-3.6-2.05.75-1.31,6.95,3.96h.01Z"/><path class="ae" d="m182.38,154.45l2.4,1.59c1.38.92,1.91,1.95.91,3.48-.98,1.47-2.06,1.39-3.19.64l-.58-.38.95-1.44.67.44c.39.26.8.52,1.11.05s-.08-.79-.48-1.05l-3.13-2.08c-.45-.3-.86-.47-1.15-.03-.31.46.09.75.5,1.02l.7.46-.95,1.44-.58-.38c-1.13-.75-1.7-1.74-.71-3.23,1.01-1.52,2.2-1.42,3.54-.53h0Z"/><path class="ae" d="m183.32,162.72l-1.05,1.42-6.42-4.76,1.05-1.42,6.42,4.76Z"/><path class="ae" d="m181.14,165.62l-1.12,1.37-5.27-4.3-1.16,1.42-.92-.75,2.28-2.79,6.19,5.06h0Z"/></g><g><path class="ae" d="m42.7,166.51l-2.19,1.87c-1.26,1.07-2.41,1.3-3.59-.09-1.14-1.34-.77-2.36.27-3.25l.53-.45,1.12,1.31-.61.52c-.35.3-.72.63-.36,1.06s.78.14,1.15-.17l2.86-2.44c.41-.35.69-.7.35-1.1-.36-.42-.75-.12-1.11.2l-.64.54-1.12-1.31.53-.45c1.04-.88,2.14-1.15,3.3.21,1.18,1.39.76,2.5-.47,3.55h-.02Z"/><path class="ae" d="m38.9,161.94l-2.39,1.76c-1.32.98-2.46,1.07-3.53-.38-1.07-1.45-.66-2.52.67-3.5l2.39-1.76c1.33-.98,2.48-1.07,3.55.38,1.07,1.44.63,2.51-.7,3.49h.01Zm-1.43-2.67l-3.09,2.29c-.38.28-.72.6-.39,1.05.31.42.72.2,1.11-.08l3.09-2.29c.37-.27.73-.59.4-1.03s-.75-.21-1.12.06Z"/><path class="ae" d="m30.59,159.78l-.67-1.05,2.36-3.45-3.24,2.06-.78-1.23,6.74-4.29.64,1.01-2.61,3.6,3.49-2.22.81,1.27-6.74,4.29h0Z"/><path class="ae" d="m32.25,151.92l-.92-1.21c.9-.52,1.12-.91.91-1.3-.18-.32-.48-.24-.72-.11-.58.32-.76.8-.91,1.5l-.2.9c-.16.78-.46,1.48-1.31,1.94-1.19.65-2.25.25-2.91-.96-.82-1.5.23-2.35,1.04-2.83l.9,1.24c-.61.36-.99.62-.77,1.02.16.29.53.25.77.12.52-.28.65-.7.78-1.31l.19-.86c.19-.89.54-1.71,1.5-2.24,1-.55,2.16-.25,2.77.87.73,1.32.41,2.33-1.12,3.24h0Z"/><path class="ae" d="m24.55,149.34l-1.54-3.24,1.09-.52.78,1.65,1.79-.85-.6-1.26,1.11-.52.6,1.26,2.16-1.02-.79-1.67,1.08-.51,1.55,3.26-7.22,3.42h0Z"/><path class="ae" d="m22.42,144.69l-.68-1.63,7.37-3.08.68,1.63s-7.37,3.08-7.37,3.08Z"/><path class="ae" d="m21.04,141.34l-.6-1.66,6.38-2.32-.63-1.72,1.12-.41,1.23,3.38-7.5,2.73h0Z"/><path class="ae" d="m18.43,133.52l-.92-3.47,1.16-.31.47,1.76,1.92-.51-.36-1.34,1.18-.31.36,1.34,2.31-.61-.47-1.78,1.15-.31.93,3.49-7.72,2.05h-.01Z"/><path class="ae" d="m20.57,126.79l-3.32,2.19-.33-1.63,1.94-1.29-2.26-.26-.29-1.44,4.35.54,3.45-2.29.33,1.62-2.14,1.43,2.51.36.29,1.43-4.52-.66h-.01Z"/><path class="ae" d="m13.21,121.31l-.23-1.62,2.14.95.14,1.01s-2.05-.34-2.05-.34Zm2.86,1.52l-.51-3.55,1.19-.17.26,1.81,1.96-.28-.2-1.38,1.21-.17.2,1.38,2.36-.34-.26-1.83,1.18-.17.51,3.57-7.91,1.12h0Z"/><path class="ae" d="m20.82,117.42l-2.87.23c-1.65.13-2.71-.35-2.86-2.17-.14-1.76.76-2.37,2.12-2.48l.69-.06.14,1.72-.8.06c-.46.04-.95.09-.91.65.05.56.55.57,1.03.53l3.74-.3c.54-.04.97-.17.92-.69-.04-.55-.54-.53-1.02-.49l-.83.07-.14-1.72.69-.06c1.36-.11,2.41.32,2.55,2.1.15,1.82-.85,2.47-2.46,2.6h0Z"/><path class="ae" d="m14.97,111.48l-.05-1.76,7.98-.22.05,1.76s-7.98.22-7.98.22Z"/><path class="ae" d="m16.22,107.15l-.02,1.2-1.31-.02.08-4.17,1.31.02-.02,1.19,6.67.12-.03,1.77-6.67-.12h0Z"/><path class="ae" d="m15.05,102.76l.11-1.76,7.97.52-.11,1.76s-7.97-.52-7.97-.52Z"/><path class="ae" d="m15.31,99.16l.38-3.43,1.18.13-.18,1.67,2,.22.16-1.46,1.22.14-.16,1.46,3.53.39-.19,1.75-7.94-.88h0Z"/><path class="ae" d="m21.84,92.37l.08-1.52c1.02.19,1.44.03,1.53-.4.07-.36-.21-.5-.48-.55-.65-.13-1.1.12-1.66.55l-.73.56c-.63.5-1.31.83-2.25.63-1.32-.27-1.88-1.26-1.6-2.61.34-1.67,1.7-1.65,2.62-1.49l-.12,1.53c-.7-.12-1.15-.17-1.24.28-.07.32.24.53.51.59.58.12.95-.12,1.44-.49l.7-.53c.72-.56,1.51-.96,2.6-.73,1.11.23,1.81,1.21,1.55,2.45-.3,1.48-1.19,2.04-2.94,1.74h-.01Z"/><path class="ae" d="m22.95,86.9l-5.31-1.47.46-1.68,5.57,1.54c.49.13,1.03.22,1.18-.32s-.37-.74-.85-.87l-5.57-1.54.47-1.69,5.31,1.47c1.62.45,2.36,1.2,1.87,2.97-.49,1.78-1.51,2.04-3.13,1.59Z"/><path class="ae" d="m19.48,79.03l.9-2.53c.48-1.35,1.49-1.7,2.89-1.2,1.74.62,1.81,1.72,1.38,2.94l-.24.67,3.2,1.13-.59,1.66-7.53-2.67h0Zm3.96-1.1c.22-.61-.07-.84-.76-1.08-.57-.2-1.01-.28-1.25.38l-.19.55,2,.71.2-.56Z"/><path class="ae" d="m20.01,70.28l.64-1.51,1.34,1.92-.4.94-1.58-1.35Zm1.66,2.77l1.41-3.3,1.11.47-.71,1.68,1.82.78.54-1.28,1.13.48-.54,1.28,2.2.93.72-1.7,1.1.47-1.41,3.32-7.35-3.13h-.02Z"/><path class="ae" d="m23.73,68.33l.99-1.96c.72-1.44,1.58-2.17,3.08-1.42.88.44,1.38.9,1.36,1.78l3.94.76-.82,1.63-3.59-.83-.23.45,3.2,1.61-.79,1.58-7.13-3.6h0Zm4.05-.49c.33-.66.06-1.04-.57-1.36-.61-.31-1.06-.3-1.36.29l-.26.51,1.97.99.22-.44h0Z"/><path class="ae" d="m26.8,62.45l.88-1.53,6.92,3.98-.88,1.53s-6.92-3.98-6.92-3.98Z"/><path class="ae" d="m28.63,59.3l1.93-3.03,1.01.65-.98,1.54,1.67,1.07.75-1.17,1.03.66-.75,1.17,2.01,1.29.99-1.56,1.01.64-1.94,3.04-6.74-4.3h.01Z"/><path class="ae" d="m35.85,58.29l-4.45-3.25,1.03-1.41,4.67,3.41c.41.3.89.57,1.22.12s-.09-.82-.49-1.12l-4.67-3.41,1.03-1.42,4.45,3.25c1.35.99,1.78,1.96.7,3.44-1.09,1.49-2.14,1.37-3.49.38h0Z"/><path class="ae" d="m35.38,49.71l1.42-1.68c1.04-1.23,2.05-1.74,3.33-.66.75.64,1.13,1.2.9,2.05l3.66,1.67-1.18,1.39-3.3-1.65-.33.38,2.73,2.32-1.14,1.35s-6.09-5.17-6.09-5.17Zm4.05.47c.48-.56.3-1-.24-1.46-.52-.44-.96-.54-1.39-.03l-.37.44,1.68,1.43.32-.38Z"/></g><g><path class="ae" d="m58.25,24.48l2.74-1.58,10.88,12.43-2.37,1.37-2.42-2.92-2.44,1.41,1.29,3.57-2.41,1.38-5.26-15.65h-.01Zm7.61,7.81l-4.34-5.35,2.43,6.44,1.91-1.1h0Z"/><path class="ae" d="m66.81,19.93l2.66-1.2,6.65,14.77-2.66,1.2-6.65-14.77Z"/><path class="ae" d="m73.29,17.08l3.7-1.23c3.08-1.02,5.15-.61,6.17,2.48.61,1.84.58,3.28-.67,4.35l4.65,6.86-2.81.93-4.17-6.43-1.33.44,2.33,7.04-2.79.92-5.09-15.38v.02Zm5.87,5.37c1.61-.53,1.97-1.43,1.42-3.08-.52-1.56-1.2-2.17-2.82-1.64l-1.04.35,1.55,4.67.89-.29h0Z"/><path class="ae" d="m92.96,23.01l-.71-5.74c-.41-3.29.39-5.51,3.92-5.94,3.3-.41,4.57,1.29,4.92,4.09l.17,1.35-2.82.35-.17-1.39c-.17-1.35-.32-2.44-1.81-2.26-1.51.19-1.51,1.35-1.33,2.82l.86,6.97c.21,1.75.67,2.54,1.96,2.38,1.45-.18,1.37-1.32,1.19-2.75l-.18-1.45,2.82-.35.16,1.29c.35,2.84-.35,5-3.75,5.42-3.53.43-4.86-1.66-5.24-4.8h0Z"/><path class="ae" d="m106.94,10.77l3.16.05,2.98,16.26-2.74-.04-.58-3.75-2.82-.05-.72,3.73-2.78-.04,3.5-16.15h0Zm2.53,10.62l-.99-6.82-1.21,6.78s2.2.04,2.2.04Z"/><path class="ae" d="m116.7,11.1l2.04.27,2.69,9.67,1.21-9.16,2.42.32-2.13,16.05-1.94-.26-2.65-10.11-1.27,9.59-2.5-.33,2.13-16.06v.02Z"/><path class="ae" d="m131.66,13.69l3.05.82-1.06,16.49-2.65-.71.35-3.78-2.72-.73-1.61,3.44-2.68-.72,7.32-14.81h0Zm-.13,10.92l.7-6.85-2.82,6.28,2.13.57h0Z"/><path class="ae" d="m141.13,16.49l3.53,1.46c3.64,1.51,4.14,3.42,2.82,6.62l-2.25,5.45c-1.36,3.29-3.14,4.39-6.65,2.94l-3.64-1.51,6.19-14.97h0Zm-1.84,14.55c1.87.77,2.35-.19,3.13-2.06l2.37-5.73c.74-1.79.86-2.61-.93-3.35l-.81-.34-4.6,11.12.85.35h-.01Z"/><path class="ae" d="m155.01,22.9l2.74,1.58-5.26,15.65-2.37-1.37,1.31-3.56-2.44-1.4-2.44,2.91-2.41-1.38,10.88-12.43h-.01Zm-2.93,10.52l2.43-6.44-4.34,5.35,1.91,1.1h0Z"/></g><path class="ae" d="m119.71,198.98s-3.07-.98.12-2.2c0,0-1.82-.86,1.82-3.28,0,0-5.12,1.31-5.15-.33,0,0-6.43,4.35-3.6-4.2,0,0-2.74,1.76-2.38-1.61,0,0-1.7,1.04-2.5-3.69-.8,4.73-2.5,3.69-2.5,3.69.36,3.36-2.38,1.61-2.38,1.61,2.83,8.55-3.6,4.2-3.6,4.2-.03,1.64-5.15.33-5.15.33,3.63,2.41,1.82,3.28,1.82,3.28,3.19,1.22.12,2.2.12,2.2,8.37,2.32-.45,4.47-.45,4.47,0,0,3.66.95,4.62,1.07.95.12.24,1.07.24,1.07,5.66-2.83,4.41,1.82,4.41,1.82.18-.21.72-.95,1.29-1.73.34-.47.84-.74,1.36-.8l-.13,5.64h.75l-.13-5.64c.52.06,1.01.33,1.36.8.57.78,1.11,1.52,1.29,1.73,0,0-1.25-4.65,4.41-1.82,0,0-.71-.95.24-1.07.95-.12,4.62-1.07,4.62-1.07,0,0-8.81-2.14-.45-4.47h-.05Z"/><g><path class="ae" d="m44.23,47.28c.39,0,.78-.15,1.07-.45,3.89-3.98,8.17-7.61,12.73-10.78.68-.47.85-1.41.38-2.09-.47-.68-1.41-.85-2.09-.37-4.72,3.28-9.15,7.03-13.16,11.15-.58.59-.57,1.54.03,2.12.29.28.67.43,1.05.43h0Z"/><path class="ae" d="m91.52,194.05c-17.41-3.31-33.25-11.77-45.78-24.44-.58-.59-1.53-.59-2.12,0s-.59,1.53,0,2.12c12.97,13.1,29.34,21.84,47.36,25.27.09.02.19.03.28.03.71,0,1.33-.5,1.47-1.22.16-.81-.38-1.6-1.19-1.75h-.01Z"/><path class="ae" d="m157.88,36.05c4.56,3.17,8.84,6.8,12.73,10.78.29.3.68.45,1.07.45s.76-.14,1.05-.43c.59-.58.6-1.53.03-2.12-4.02-4.12-8.45-7.87-13.16-11.15-.68-.47-1.61-.31-2.09.37-.47.68-.31,1.61.38,2.09h-.01Z"/><path class="ae" d="m170.17,169.61c-12.54,12.67-28.37,21.12-45.78,24.44-.81.16-1.35.94-1.19,1.75.14.72.77,1.22,1.47,1.22.09,0,.19,0,.28-.03,18.01-3.43,34.39-12.17,47.36-25.27.58-.59.58-1.54,0-2.12s-1.54-.58-2.12,0h-.01Z"/></g></svg>